<svg xmlns="http://www.w3.org/2000/svg" width="512" height="512" viewBox="0 0 512 512" version="1.1"><path d="M 249.429 86.893 C 246.042 88.431, 233.089 101.196, 232.279 103.792 C 232.158 104.181, 270.521 144.518, 317.529 193.429 L 403 282.357 403 390.179 L 403 498 414.250 497.978 C 430.348 497.947, 436.773 494.783, 441.623 484.500 L 443.980 479.500 443.925 376.500 L 443.869 273.500 354.895 181 C 294.655 118.372, 264.723 87.943, 262.211 86.776 C 257.459 84.569, 254.486 84.596, 249.429 86.893 M 218.978 116.750 L 210.500 125.500 219.250 117.022 C 224.063 112.359, 228 108.422, 228 108.272 C 228 107.544, 226.852 108.623, 218.978 116.750 M 193.978 142.750 L 185.500 151.500 194.250 143.022 C 202.377 135.148, 203.456 134, 202.728 134 C 202.578 134, 198.641 137.938, 193.978 142.750 M 169.978 167.750 L 161.500 176.500 170.250 168.022 C 175.063 163.359, 179 159.422, 179 159.272 C 179 158.544, 177.852 159.623, 169.978 167.750 M 144.978 193.750 L 136.500 202.500 145.250 194.022 C 153.377 186.148, 154.456 185, 153.728 185 C 153.578 185, 149.641 188.938, 144.978 193.750 M 120.978 218.750 L 112.500 227.500 121.250 219.022 C 129.377 211.148, 130.456 210, 129.728 210 C 129.578 210, 125.641 213.938, 120.978 218.750 M 96.978 243.750 L 88.500 252.500 97.250 244.022 C 105.377 236.148, 106.456 235, 105.728 235 C 105.578 235, 101.641 238.938, 96.978 243.750 M 73.971 267.750 L 67.500 274.500 74.250 268.029 C 77.963 264.470, 81 261.432, 81 261.279 C 81 260.543, 79.982 261.480, 73.971 267.750 M 253.250 339.716 C 254.762 339.945, 257.238 339.945, 258.750 339.716 C 260.262 339.487, 259.025 339.300, 256 339.300 C 252.975 339.300, 251.738 339.487, 253.250 339.716" stroke="none" fill="#c4e2ff" fill-rule="evenodd"/><path d="M 149.759 189.338 L 68.019 274.500 68.019 377 L 68.020 479.500 70.377 484.500 C 73.187 490.458, 75.952 493.174, 82 495.916 C 86.347 497.887, 88.313 497.957, 139.750 497.978 L 193 498 193 446.160 C 193 397.618, 193.127 393.823, 194.997 386.511 C 197.778 375.639, 202.967 366.864, 211.915 357.906 C 231.317 338.480, 259.186 333.892, 283.902 346.055 C 295.459 351.742, 307.116 363.240, 312.343 374.107 C 318.874 387.684, 318.969 388.719, 318.985 446.250 L 319 498 361 498 L 403 498 403 390.173 L 403 282.346 323.410 199.423 C 279.636 153.815, 241.048 113.727, 237.660 110.338 L 231.500 104.176 149.759 189.338" stroke="none" fill="#d8ecfe" fill-rule="evenodd"/><path d="M 242.168 341.533 C 220.855 346.160, 201.092 365.298, 195.585 386.644 C 194.237 391.869, 194 400.584, 194 444.894 L 194 497 256 497 L 318 497 318 444.894 C 318 386.891, 317.972 386.597, 311.222 373.500 C 306.081 363.527, 293.993 351.683, 283.871 346.701 C 270.888 340.311, 256.190 338.490, 242.168 341.533" stroke="none" fill="#3c87d0" fill-rule="evenodd"/><path d="M 247.500 15.892 C 242.569 18.171, 241.395 19.369, 118.474 147.500 C 64.128 204.150, 15.239 255.084, 9.832 260.687 C 0.213 270.654, 0 270.977, 0 275.601 C 0 280.315, 0.036 280.364, 12.684 293.147 C 26.629 307.241, 29.602 309.029, 35.200 306.690 C 37.224 305.844, 44.353 299.132, 53.036 289.897 C 60.991 281.436, 72.260 269.560, 78.078 263.506 C 163.609 174.509, 236.522 98.475, 240.495 94.137 C 245.625 88.536, 251.588 85.041, 256 85.048 C 261.889 85.058, 266.243 88.831, 295.213 119.023 C 311.321 135.810, 351.500 177.683, 384.500 212.073 C 417.500 246.464, 451.015 281.507, 458.978 289.947 C 466.940 298.387, 474.867 305.882, 476.592 306.603 C 482.429 309.042, 485.460 307.215, 499.826 292.602 C 512.874 279.330, 513 279.158, 513 274.601 C 513 272.070, 512.663 270.091, 512.250 270.202 C 511.837 270.313, 507.187 265.926, 501.915 260.452 C 496.643 254.978, 448.091 204.375, 394.020 148 C 271.932 20.708, 269.459 18.186, 264.500 15.893 C 259.397 13.534, 252.605 13.533, 247.500 15.892 M 0.286 275.500 C 0.294 278.250, 0.488 279.256, 0.718 277.736 C 0.947 276.216, 0.941 273.966, 0.704 272.736 C 0.467 271.506, 0.279 272.750, 0.286 275.500 M 211.453 358.250 L 207.500 362.500 211.750 358.547 C 215.702 354.871, 216.460 354, 215.703 354 C 215.540 354, 213.627 355.913, 211.453 358.250 M 299.500 358 C 301.648 360.200, 303.631 362, 303.906 362 C 304.181 362, 302.648 360.200, 300.500 358 C 298.352 355.800, 296.369 354, 296.094 354 C 295.819 354, 297.352 355.800, 299.500 358 M 193.241 446.750 L 193 498 256 498 L 319 498 318.759 446.750 L 318.519 395.500 318.250 446.250 L 317.982 497 256 497 L 194.018 497 193.750 446.250 L 193.481 395.500 193.241 446.750" stroke="none" fill="#60b7ff" fill-rule="evenodd"/></svg>