<svg xmlns="http://www.w3.org/2000/svg" width="512" height="512" viewBox="0 0 512 512" version="1.1"><path d="M 253.249 109.010 C 250.431 110.170, 250.124 110.854, 238.049 142.864 C 232.580 157.365, 227.968 169.356, 227.802 169.511 C 227.636 169.667, 213.450 170.209, 196.278 170.716 C 168.729 171.530, 164.828 171.845, 163.118 173.393 C 160.480 175.780, 159.692 179.543, 161.227 182.418 C 162.233 184.303, 183.863 202.259, 207.362 220.716 L 210.183 222.931 201.457 252.863 C 195.450 273.471, 192.934 283.600, 193.380 285.379 C 194.010 287.889, 198.409 291, 201.326 291 C 202.111 291, 214.146 283.527, 228.073 274.393 C 241.999 265.259, 253.965 257.567, 254.664 257.299 C 255.363 257.030, 267.312 264.580, 281.217 274.075 C 301.468 287.902, 307.172 291.344, 309.879 291.369 C 313.863 291.406, 317.010 288.203, 316.982 284.139 C 316.973 282.688, 313.436 268.675, 309.123 253 C 304.810 237.325, 301.460 224.179, 301.677 223.787 C 301.895 223.395, 312.847 214.719, 326.017 204.508 C 339.186 194.296, 350.450 185.028, 351.047 183.912 C 352.534 181.135, 351.285 176.228, 348.663 174.541 C 347.089 173.528, 338.081 172.725, 315.601 171.592 C 298.606 170.736, 284.517 169.850, 284.291 169.624 C 284.064 169.398, 279.227 156.289, 273.540 140.493 C 267.854 124.697, 262.594 111.179, 261.851 110.452 C 259.951 108.595, 255.906 107.917, 253.249 109.010" stroke="none" fill="#feaa2b" fill-rule="evenodd"/><path d="M 237.516 57.080 C 205.212 61.532, 176.507 76.075, 152.950 99.924 C 133.718 119.394, 121.065 143.224, 114.776 171.817 C 111.710 185.755, 111.710 214.245, 114.776 228.183 C 119.586 250.054, 128.220 269.173, 140.933 286.104 C 162.256 314.502, 191.936 333.332, 227.817 341.224 C 241.755 344.290, 270.245 344.290, 284.183 341.224 C 306.079 336.408, 325.173 327.779, 342.164 315.022 C 388.691 280.088, 409.569 221.310, 395.490 164.892 C 382.059 111.073, 337.814 69.251, 282.926 58.492 C 272.879 56.523, 247.323 55.728, 237.516 57.080 M 251.231 110.254 C 250.066 111.494, 244.317 125.174, 238.454 140.654 L 227.796 168.799 218.148 169.385 C 212.842 169.707, 198.634 170.260, 186.576 170.613 C 165.381 171.235, 164.576 171.333, 162.326 173.583 C 160.796 175.113, 160 177.082, 160 179.338 C 160 183.500, 160.038 183.536, 188.591 206.299 L 209.663 223.098 201.370 251.299 C 196.809 266.810, 193.060 281.109, 193.039 283.076 C 192.991 287.493, 196.329 291, 200.583 291 C 202.723 291, 210.664 286.323, 229.404 274.025 C 243.631 264.688, 255.772 257.351, 256.385 257.721 C 256.998 258.090, 268.603 265.954, 282.173 275.196 C 309.430 293.760, 310.849 294.345, 315.411 288.923 C 316.835 287.231, 318 285.317, 318 284.670 C 318 284.022, 314.387 270.258, 309.971 254.082 C 305.556 237.906, 302.068 224.352, 302.221 223.961 C 302.375 223.570, 312.850 215.267, 325.500 205.509 C 338.150 195.751, 349.288 186.870, 350.250 185.773 C 352.863 182.795, 352.491 177.810, 349.442 174.945 C 346.930 172.586, 346.321 172.517, 316.192 171.156 C 299.311 170.394, 285.191 169.484, 284.814 169.135 C 284.437 168.786, 279.590 155.919, 274.043 140.543 C 268.298 124.615, 263.032 111.599, 261.805 110.293 C 258.960 107.264, 254.057 107.246, 251.231 110.254" stroke="none" fill="#ffea54" fill-rule="evenodd"/><path d="M 229 17.581 C 162.825 28.052, 108.704 71.311, 84.012 133.469 C 70.667 167.063, 68.260 210.127, 77.695 246.500 C 86.946 282.170, 107.098 314.641, 134.040 337.295 C 162.264 361.026, 188.654 373.705, 225.007 381.001 C 237.894 383.588, 242.153 384, 256 384 C 269.894 384, 274.101 383.590, 287.277 380.953 C 323.239 373.756, 350.312 360.735, 377.962 337.337 C 410.392 309.892, 432.002 270.071, 438.450 225.872 C 440.442 212.212, 440.445 187.815, 438.455 174.128 C 428.744 107.344, 384.353 51.903, 321.013 27.453 C 312.158 24.035, 301.666 21.126, 288.320 18.389 C 277.018 16.072, 241.588 15.589, 229 17.581 M 237.516 57.080 C 205.212 61.532, 176.507 76.075, 152.950 99.924 C 133.718 119.394, 121.065 143.224, 114.776 171.817 C 111.710 185.755, 111.710 214.245, 114.776 228.183 C 119.586 250.054, 128.220 269.173, 140.933 286.104 C 162.256 314.502, 191.936 333.332, 227.817 341.224 C 241.755 344.290, 270.245 344.290, 284.183 341.224 C 306.079 336.408, 325.173 327.779, 342.164 315.022 C 388.691 280.088, 409.569 221.310, 395.490 164.892 C 382.059 111.073, 337.814 69.251, 282.926 58.492 C 272.879 56.523, 247.323 55.728, 237.516 57.080 M 220.250 169.716 C 221.762 169.945, 224.238 169.945, 225.750 169.716 C 227.262 169.487, 226.025 169.300, 223 169.300 C 219.975 169.300, 218.738 169.487, 220.250 169.716 M 191.280 170.736 C 193.909 170.943, 197.959 170.940, 200.280 170.731 C 202.601 170.521, 200.450 170.352, 195.500 170.355 C 190.550 170.358, 188.651 170.530, 191.280 170.736 M 295.250 170.716 C 296.762 170.945, 299.238 170.945, 300.750 170.716 C 302.262 170.487, 301.025 170.300, 298 170.300 C 294.975 170.300, 293.738 170.487, 295.250 170.716 M 315.768 171.725 C 317.565 171.947, 320.265 171.943, 321.768 171.715 C 323.271 171.486, 321.800 171.304, 318.500 171.310 C 315.200 171.315, 313.971 171.502, 315.768 171.725 M 336.768 172.725 C 338.565 172.947, 341.265 172.943, 342.768 172.715 C 344.271 172.486, 342.800 172.304, 339.500 172.310 C 336.200 172.315, 334.971 172.502, 336.768 172.725" stroke="none" fill="#ffcb3c" fill-rule="evenodd"/><path d="M 129.056 337.250 C 128.564 338.488, 117.775 364.207, 105.081 394.403 C 92.386 424.600, 82 450.503, 82 451.965 C 82 455.124, 85.084 458.732, 88.521 459.595 C 90.305 460.042, 98.659 457.155, 118.744 449.147 C 134.010 443.061, 147.092 437.950, 147.817 437.791 C 148.692 437.597, 152.813 446.718, 160.111 465 C 167.613 483.791, 171.885 493.213, 173.601 494.750 C 176.605 497.442, 181.005 497.657, 183.838 495.250 C 185.448 493.882, 229.454 391.465, 231.684 383.897 C 232.063 382.612, 231.063 382.165, 226.640 381.645 C 218.649 380.706, 199.663 375.639, 190.449 371.986 C 171.447 364.453, 149.514 351.392, 136.840 340.060 C 133.727 337.277, 130.903 335, 130.565 335 C 130.227 335, 129.548 336.012, 129.056 337.250 M 373.510 341.460 C 364.862 348.650, 352.980 356.754, 343 362.269 C 327.949 370.587, 300.301 379.889, 285.438 381.636 C 282.447 381.988, 280 382.519, 280 382.818 C 280 383.116, 290.460 408.299, 303.243 438.780 C 323.318 486.644, 326.856 494.391, 329.194 495.600 C 337.228 499.755, 338.948 497.432, 351.852 465 C 357.870 449.875, 363.178 437.500, 363.647 437.500 C 364.116 437.500, 377.230 442.607, 392.788 448.849 C 413.095 456.996, 421.763 460.025, 423.510 459.587 C 426.915 458.732, 430 455.115, 430 451.977 C 430 449.629, 383.823 337.665, 382.054 335.723 C 381.664 335.295, 377.820 337.877, 373.510 341.460" stroke="none" fill="#ff5757" fill-rule="evenodd"/></svg>