<svg xmlns="http://www.w3.org/2000/svg" width="512" height="512" viewBox="0 0 512 512" version="1.1"><path d="M 80.660 50.048 C 72.576 51.404, 61.932 54.988, 53.500 59.193 C 29.135 71.341, 11.716 92.333, 3.334 119.647 C 0.638 128.433, 0.615 128.765, 0.231 163.750 L -0.157 199 21.834 199 L 43.824 199 44.239 168.750 C 44.635 139.831, 44.771 138.060, 47.322 128.500 C 50.858 115.245, 59.215 98.747, 67.874 87.927 C 82.771 69.310, 106.074 55.432, 130.625 50.554 C 137.138 49.260, 136.131 49.189, 111.500 49.212 C 97.200 49.225, 83.322 49.601, 80.660 50.048 M 381.375 50.506 C 406.247 55.621, 429.252 69.339, 444.126 87.927 C 452.785 98.747, 461.142 115.245, 464.678 128.500 C 467.229 138.060, 467.365 139.831, 467.761 168.750 L 468.176 199 490.166 199 L 512.157 199 511.769 163.750 C 511.385 128.765, 511.362 128.433, 508.666 119.647 C 498.407 86.217, 474.709 62.524, 441.353 52.351 C 432.727 49.720, 431.756 49.644, 403.500 49.372 C 376.342 49.110, 374.937 49.182, 381.375 50.506 M 203.017 236.250 C 203.037 277.565, 203.588 282.771, 209.105 293.683 C 213.016 301.418, 223.135 311.727, 230.856 315.843 C 246.377 324.115, 265.623 324.115, 281.144 315.843 C 288.865 311.727, 298.984 301.418, 302.895 293.683 C 308.412 282.771, 308.963 277.565, 308.983 236.250 L 309 199 256 199 L 203 199 203.017 236.250 M 248.500 235.881 C 246.300 236.891, 243.730 238.585, 242.788 239.645 C 240.267 242.485, 237.997 248.472, 238.022 252.218 C 238.051 256.611, 241.141 263.179, 244.374 265.723 C 246.936 267.737, 247 268.069, 247 279.248 C 247 290.026, 247.146 290.865, 249.452 293.354 C 251.335 295.385, 252.856 296, 256 296 C 259.144 296, 260.665 295.385, 262.548 293.354 C 264.854 290.865, 265 290.026, 265 279.248 C 265 268.069, 265.064 267.737, 267.626 265.723 C 270.933 263.121, 273.956 256.567, 273.956 252 C 273.956 247.925, 271.125 241.248, 268.355 238.788 C 265.515 236.267, 259.528 233.997, 255.782 234.022 C 253.977 234.034, 250.700 234.870, 248.500 235.881" stroke="none" fill="#f0c419" fill-rule="evenodd"/><path d="M 248.180 236.682 C 237.948 241.724, 235.810 257.236, 244.318 264.706 C 247.509 267.508, 247.513 267.522, 247.162 276.049 C 246.703 287.243, 248.114 292.490, 252.144 294.575 C 255.687 296.406, 259.155 295.845, 262.025 292.975 C 263.763 291.237, 264 289.617, 264 279.469 L 264 267.939 267.439 264.919 C 276.250 257.183, 274.169 241.630, 263.655 236.641 C 259.263 234.556, 252.456 234.574, 248.180 236.682" stroke="none" fill="#2c2f38" fill-rule="evenodd"/><path d="M 134 50.538 C 113.065 53.847, 93.417 63.425, 78 77.836 L 71.500 83.911 256 83.911 L 440.500 83.911 434 77.836 C 418.244 63.108, 398.792 53.764, 377 50.455 C 363.524 48.408, 147.002 48.482, 134 50.538 M 45.863 139.250 C 45.034 140.795, 44.511 150.512, 44.194 170.250 L 43.732 199 256 199 L 468.268 199 467.806 170.250 C 467.489 150.512, 466.966 140.795, 466.137 139.250 L 464.930 137 256 137 L 47.070 137 45.863 139.250 M 264.378 278 C 264.378 284.325, 264.541 286.913, 264.739 283.750 C 264.937 280.587, 264.937 275.413, 264.739 272.250 C 264.541 269.087, 264.378 271.675, 264.378 278 M 60.416 309.250 C 60.712 311.587, 61.425 321.600, 62 331.500 C 62.575 341.400, 63.288 351.413, 63.584 353.750 L 64.123 358 256 358 L 447.877 358 448.416 353.750 C 448.712 351.413, 449.425 341.400, 450 331.500 C 450.575 321.600, 451.288 311.587, 451.584 309.250 L 452.123 305 373.958 305 L 295.794 305 290.647 309.652 C 283.792 315.847, 273.428 320.667, 263.750 322.162 C 248.769 324.475, 232.415 319.649, 221.353 309.652 L 216.206 305 138.042 305 L 59.877 305 60.416 309.250" stroke="none" fill="#805333" fill-rule="evenodd"/><path d="M 66.829 89.750 C 57.383 101.910, 50.579 115.927, 47.465 129.637 C 46.608 133.412, 45.681 137.400, 45.406 138.500 C 44.952 140.310, 45.009 140.334, 46.002 138.750 C 47.041 137.092, 58.132 137, 256 137 C 453.868 137, 464.959 137.092, 465.998 138.750 C 466.991 140.334, 467.048 140.310, 466.594 138.500 C 466.319 137.400, 465.392 133.412, 464.535 129.637 C 461.421 115.927, 454.617 101.910, 445.171 89.750 L 440.705 84 256 84 L 71.295 84 66.829 89.750 M 44.232 149 C 44.232 150.925, 44.438 151.713, 44.689 150.750 C 44.941 149.787, 44.941 148.213, 44.689 147.250 C 44.438 146.287, 44.232 147.075, 44.232 149 M 467.232 149 C 467.232 150.925, 467.438 151.713, 467.689 150.750 C 467.941 149.787, 467.941 148.213, 467.689 147.250 C 467.438 146.287, 467.232 147.075, 467.232 149 M 62.302 253.012 C 61.094 253.499, 59.410 255.240, 58.561 256.882 C 57.169 259.573, 57.171 262.059, 58.579 282.170 C 59.437 294.437, 60.261 304.595, 60.410 304.743 C 60.558 304.891, 95.692 304.897, 138.485 304.756 L 216.292 304.500 213.780 301.500 C 206.466 292.764, 203.036 280.737, 203.015 263.750 L 203 252 133.750 252.063 C 95.662 252.098, 63.511 252.525, 62.302 253.012 M 308.985 263.750 C 308.964 280.737, 305.534 292.764, 298.220 301.500 L 295.708 304.500 373.515 304.756 C 416.308 304.897, 451.442 304.891, 451.590 304.743 C 451.739 304.595, 452.563 294.437, 453.421 282.170 C 454.827 262.085, 454.829 259.571, 453.443 256.890 C 452.597 255.253, 450.771 253.483, 449.387 252.957 C 447.873 252.381, 419.408 252, 377.935 252 L 309 252 308.985 263.750 M 60.232 312 C 60.232 313.925, 60.438 314.712, 60.689 313.750 C 60.941 312.788, 60.941 311.212, 60.689 310.250 C 60.438 309.288, 60.232 310.075, 60.232 312 M 451.232 312 C 451.232 313.925, 451.438 314.712, 451.689 313.750 C 451.941 312.788, 451.941 311.212, 451.689 310.250 C 451.438 309.288, 451.232 310.075, 451.232 312 M 61.232 327 C 61.232 328.925, 61.438 329.712, 61.689 328.750 C 61.941 327.788, 61.941 326.212, 61.689 325.250 C 61.438 324.288, 61.232 325.075, 61.232 327 M 450.232 327 C 450.232 328.925, 450.438 329.712, 450.689 328.750 C 450.941 327.788, 450.941 326.212, 450.689 325.250 C 450.438 324.288, 450.232 325.075, 450.232 327 M 62.232 342 C 62.232 343.925, 62.438 344.712, 62.689 343.750 C 62.941 342.788, 62.941 341.212, 62.689 340.250 C 62.438 339.288, 62.232 340.075, 62.232 342 M 449.232 342 C 449.232 343.925, 449.438 344.712, 449.689 343.750 C 449.941 342.788, 449.941 341.212, 449.689 340.250 C 449.438 339.288, 449.232 340.075, 449.232 342 M 63.695 359 C 63.891 361.475, 64.698 372.816, 65.488 384.202 C 66.334 396.404, 67.430 405.716, 68.158 406.881 C 68.837 407.968, 70.450 409.340, 71.743 409.929 C 75.056 411.438, 436.944 411.438, 440.257 409.929 C 441.550 409.340, 443.163 407.968, 443.842 406.881 C 444.570 405.716, 445.666 396.404, 446.512 384.202 C 447.302 372.816, 448.109 361.475, 448.305 359 C 448.501 356.525, 448.481 355.288, 448.261 356.250 C 447.882 357.909, 437.906 358, 256 358 C 74.094 358, 64.118 357.909, 63.739 356.250 C 63.519 355.288, 63.499 356.525, 63.695 359" stroke="none" fill="#af8066" fill-rule="evenodd"/><path d="M 74.453 80.250 L 70.500 84.500 74.750 80.547 C 78.702 76.871, 79.460 76, 78.703 76 C 78.540 76, 76.627 77.912, 74.453 80.250 M 436.500 80 C 438.648 82.200, 440.631 84, 440.906 84 C 441.181 84, 439.648 82.200, 437.500 80 C 435.352 77.800, 433.369 76, 433.094 76 C 432.819 76, 434.352 77.800, 436.500 80 M -0.003 202.250 C -0.012 211.710, 16.154 448.069, 17.024 451.205 C 18.345 455.959, 22.513 460.899, 26.671 462.636 C 29.396 463.774, 67.342 464, 256.067 464 C 462.414 464, 482.496 463.858, 485.610 462.381 C 489.911 460.340, 493.644 455.950, 494.877 451.483 C 495.402 449.583, 499.280 395.484, 503.494 331.264 C 507.709 267.044, 511.572 213.719, 512.079 212.764 C 512.585 211.809, 513 208.209, 513 204.764 L 513 198.500 411 198.759 L 309 199.019 309 225.509 L 309 252 377.935 252 C 419.408 252, 447.873 252.381, 449.387 252.957 C 450.771 253.483, 452.595 255.251, 453.440 256.885 C 454.816 259.544, 454.824 262.190, 453.518 282.177 C 452.716 294.455, 451.371 315.075, 450.529 328 C 447.142 380, 445.020 404.995, 443.831 406.899 C 443.158 407.976, 441.550 409.340, 440.257 409.929 C 436.944 411.438, 75.056 411.438, 71.743 409.929 C 70.450 409.340, 68.842 407.976, 68.169 406.899 C 66.980 404.995, 64.858 380, 61.471 328 C 60.629 315.075, 59.284 294.455, 58.482 282.177 C 57.176 262.190, 57.184 259.544, 58.560 256.885 C 59.405 255.251, 61.229 253.483, 62.613 252.957 C 64.127 252.381, 92.592 252, 134.065 252 L 203 252 203 225.500 L 203 199 101.500 199 L 0 199 -0.003 202.250 M 0.336 206 C 0.336 210.125, 0.513 211.813, 0.728 209.750 C 0.944 207.688, 0.944 204.313, 0.728 202.250 C 0.513 200.188, 0.336 201.875, 0.336 206" stroke="none" fill="#f29c1f" fill-rule="evenodd"/></svg>